<?xml version="1.0" encoding="UTF-8"?>
<svg id="Layer_2" data-name="Layer 2" xmlns="http://www.w3.org/2000/svg" viewBox="0 0 86 90.5">
  <g id="Layer_1-2" data-name="Layer 1">
    <path d="M43.38,40.5c-11.17,0-20.25-9.08-20.25-20.25S32.21,0,43.38,0s20.25,9.08,20.25,20.25-9.08,20.25-20.25,20.25ZM43.38,5c-8.41,0-15.25,6.84-15.25,15.25s6.84,15.25,15.25,15.25,15.25-6.84,15.25-15.25-6.84-15.25-15.25-15.25Z"/>
    <path d="M86,90.5H0v-2.5c0-23.71,19.29-43,43-43s43,19.29,43,43v2.5ZM5.08,85.5h75.84c-1.29-19.79-17.81-35.5-37.92-35.5S6.37,65.71,5.08,85.5Z"/>
  </g>
</svg>